<svg width="100%" height="100%" viewBox="0 0 347 347" fill="none" xmlns="http://www.w3.org/2000/svg">
    <g clip-path="url(#clip0_6_2)">
        <path d="M110 21C107.62 11.29 102.9 0.0700002 97 -7C99.83 2.56 104.84 13.62 110 21Z" stroke="#48B3AA" stroke-width="0.3"/>
        <path d="M159 28C152.19 24.76 154.04 42.42 159.3 34.3C164.55 26.17 159.25 10.76 159 1C155.89 9.49 159.19 18.76 159 28Z" stroke="#43B0A7" stroke-width="0.3"/>
        <path d="M178 13C177.65 15.4 177.17 19.21 177 21C176.39 26.18 178.25 32.58 176 37C173.78 31.74 175.09 24.97 173 20C171.54 36.04 173.79 52.07 176 68C171.42 70 167.4 62.06 163.75 67.75C160.09 73.43 154.6 70.13 154 65C151.07 65.22 148.77 63.27 146 63C144.96 66.5 146.58 70.04 146 74C139.91 78.83 134.54 73.6 128 76C128.49 79.58 127.14 84.62 123 85C121.92 78.91 121.3 72.72 119 67C111.48 69.8 122.23 79.55 118 85C112.83 81.84 110.42 89.16 106 90C104.24 87.35 101.62 84.89 99 83C98.75 87.97 102.72 91.03 105 95C100.87 94.48 98.17 91.44 101 97C94.23 92.36 97.21 77.96 89 73C87.07 76.96 93.01 79.92 93 84C89.32 82.29 86.44 77.19 82 76C86.56 84.44 93.25 92.66 99 100C92.15 98.51 90.27 104.84 92 110C78.06 105.29 69.72 89.92 56 84C56.06 86.3 59.03 87.55 61 88C54.86 93.58 69.67 98.88 74.75 102.25C79.84 105.61 92.65 111.25 87 119C82.77 115.73 78.99 117.42 77 122C75.01 126.58 81.75 132.66 76 133C82.17 139.04 73.71 143.48 68.22 141.78C62.74 140.07 60.51 135.6 55 137C56.6 140.45 59.28 142.93 55 146C60.7 152.62 75.54 148.06 70.26 158.26C64.97 168.45 58.5 164.54 49 165C52.23 167.16 56.73 168.35 61 168C62.18 170.8 62.89 173.64 65 176C60.49 176.59 54.75 174.78 51 177C56.84 178.32 63.13 177.86 69 179C67.92 181.22 66.46 183.32 67 186C80.22 189.37 74.33 209.16 62 209C64.18 214.96 72.66 209.87 78 209C79.03 212.87 75.38 215.73 72 216C71.96 217.67 72.06 219.34 72 221C71.96 222.26 74.15 221.57 74 223C72.23 224.68 70.09 224.98 68 226C55.14 230.24 42.34 237.28 30 241C37.89 241.59 44.82 238.43 52.31 234.31C59.79 230.18 66.36 230.69 73.92 224.92C81.47 219.14 82.46 226.07 90 231C87.03 238.93 77.41 239.16 74 247C79 246.22 80.36 246.44 82 249C84.82 244.69 89.81 242.62 94 240C94.81 242.1 97.92 243.23 97 246C89.76 250.17 98.55 253.95 103 251C101.33 257.5 88.73 258.01 97 265C91.98 267.54 86.59 272.98 84 278C92.6 272.83 100.04 264.33 107 257C105.69 260.32 110.16 260.48 110 263C104.58 268.1 98.19 273.8 96 281C101.9 276.18 107.87 268.54 113 263C116.01 267.05 121.62 266.3 118 272C122.45 270.89 123.09 264.62 128 265C128.41 272.05 129.68 276.63 136.78 270.78C143.88 264.93 143.76 275.77 146.78 279.22C149.8 282.67 155.19 270.42 160 274C160.33 282.7 159.03 290.82 160 299C160.01 299.06 161 299 161 299C161.48 295.16 161.43 291.07 164 288C167.28 293.48 161.4 301.04 165 307C167.31 302.66 165.35 296.16 166 291C171.17 295.68 170.25 286.11 172.23 282.23C174.21 278.35 180.65 273.76 182 281C187.86 276.46 193.2 276.37 193 285C193.21 276 199.93 279.86 201 286C204.6 281.36 196.25 276.59 200.25 272.25C204.25 267.92 208.08 271.17 210.25 275.74C212.43 280.31 220.65 269.52 214 268C217.67 262.68 218.64 266.38 222.33 269.67C226.02 272.95 231.2 264.18 227 261C239.58 247.91 250.36 266.58 260 273C260.38 269.88 255.66 269.11 256 266C261.42 266.93 263.52 275.03 268.92 276.08C274.33 277.12 276.26 286.67 282 284C274.7 276.9 267.05 269.84 262 261C267.37 262.21 269.62 269.76 275 271C272.07 260.58 258.69 255.89 254 246C258.98 249.39 263.67 256.24 270 254C274.59 258.48 279.72 264.42 286 266C279.25 261.61 272.68 249.08 265 253C259.66 249.23 249.29 239.7 259.25 235.25C269.2 230.79 257.9 214.77 267.99 213.01C278.09 211.25 283.74 222.61 293 219C286.85 215.93 279.84 215.87 274 212C274.47 205.66 285.94 208.59 286.92 203.08C287.91 197.56 276.73 196.97 276 192C279.76 189.36 280.37 181.79 275 181C273.2 168.62 288.69 170.35 297 169C292.13 166.24 285.44 169.1 280 169C283.21 158.83 301.72 165.03 307 158C300.04 162.43 293.73 157.27 288.01 156.01C282.29 154.74 271.79 160.1 276 149C286.19 152.82 281.23 134.92 273 141C267.17 136.42 265.85 124.92 274 122C274.42 114.06 266.58 114.94 262 118C258.85 112.79 257.21 107.23 254 102C255.89 94.92 262.89 89.24 265 82C264.48 82.43 262.69 82.38 262 83C260.34 87.84 256.57 92.54 251 90C252.16 81.47 261.4 75.94 265 68C253.35 73.18 251.27 89.29 241 94C242.07 89.98 240.54 84.2 245 82C238.4 71.7 250.95 67.05 255.3 60.3C259.64 53.54 266.68 47.76 270 40C262.9 45 257.25 54.18 249.75 59.75C242.26 65.33 238.67 76.03 231 81C228.42 75.64 236.23 73.38 236 68C233.46 67.98 231.24 69.01 229 70C230.35 73.92 225.85 83.64 221.75 81.25C217.65 78.85 213.73 74.44 216 70C214.67 67.07 212.71 72.54 211 70C214.43 59.08 219.82 46.61 220 36C217.93 44.66 212.56 47.41 211.93 56.93C211.29 66.44 199.48 64.12 198 72C188.39 75.5 190.8 66.2 192.07 62.07C193.34 57.94 197.43 50.04 193.03 48.03C188.62 46.02 188.99 59.87 185 59C185.17 55.91 186.6 53.26 186 50C182.56 49.3 184.12 51.29 183 53C182.46 55.41 184.26 60.32 180 60C180.28 58.01 181.48 56.22 181 54C182.33 46.16 182.83 38.12 183 30C179.03 32.47 179.46 31.52 179 27C178.54 22.44 180.39 16.34 179 12C178.81 11.9 178.22 12.7 178 13ZM240 80C240.09 82.47 237.42 84.54 235 84C235.89 81.86 237.06 79.24 240 80ZM73 148C70.63 150.58 69.39 145.15 73 148Z" stroke="#0EA79D" stroke-width="0.3"/>
        <path d="M179 27C179 24.67 182.38 13.89 179 12C180.39 16.34 178.54 22.44 179 27Z" stroke="#9FD5D0" stroke-width="0.3"/>
        <path d="M177 21C177.17 19.21 177.65 15.4 178 13C176.46 15.09 177 18.19 177 21Z" stroke="#9BD9D5" stroke-width="0.3"/>
        <path d="M116 23C117.27 21.28 116.04 15.18 113 15C113.6 17.81 115.06 20.29 116 23Z" stroke="#4CB8B1" stroke-width="0.3"/>
        <path d="M197 28C200.13 26.72 199.5 21.02 198 19C196.39 21.38 196 25.22 197 28Z" stroke="#4EB5AD" stroke-width="0.3"/>
        <path d="M123 61C124.23 50.92 115.92 39.87 113 30C112.94 39.76 119.95 50.88 123 61Z" stroke="#50B5AC" stroke-width="0.3"/>
        <path d="M103 33C106.15 36.64 100.14 35.31 103 33Z" stroke="#47B8B0" stroke-width="0.3"/>
        <path d="M135 60C135.98 51.41 131.56 39.48 125 33C124.65 44.63 130.53 51.15 135 60Z" stroke="#37AEA5" stroke-width="0.3"/>
        <path d="M169 38C163.87 34.7 161.09 42.29 164.75 44.2C168.42 46.1 171.35 39.51 169 38Z" stroke="#39AEA4" stroke-width="0.3"/>
        <path d="M211 39C207.97 41.76 206.1 48.42 208 52C211.24 49.2 212.33 42.89 211 39Z" stroke="#65BCB3" stroke-width="0.3"/>
        <path d="M232 39C225.45 46.85 221.66 57.14 219 67C226.94 62.28 227.8 47.88 232 39Z" stroke="#45B2A8" stroke-width="0.3"/>
        <path d="M276 42C275.75 47.59 270.38 42.31 276 42Z" stroke="#64BEB6" stroke-width="0.3"/>
        <path d="M52 56C50.78 51.83 46.2 48.91 43 46C43.26 50.4 48.25 54.42 52 56Z" stroke="#36AEA4" stroke-width="0.3"/>
        <path d="M110 49C110.89 44.18 105.76 47.38 110 49Z" stroke="#8ACEC8" stroke-width="0.3"/>
        <path d="M273 46C269.79 47.17 266.34 51.37 266 55C270.22 54.35 271.03 48.98 273 46ZM269 51C269.06 55.33 265.15 52.49 269 51Z" stroke="#A0D7D2" stroke-width="0.3"/>
        <path d="M79 48C76.88 47.18 75.01 51.8 77.25 52.59C79.49 53.38 81.26 48.87 79 48Z" stroke="#40B2A9" stroke-width="0.3"/>
        <path d="M142 54C145.74 47.64 136.93 47.07 142 54Z" stroke="#8FD1CC" stroke-width="0.3"/>
        <path d="M269 51C269.06 55.33 265.15 52.49 269 51Z" stroke="#00A79D" stroke-width="0.3"/>
        <path d="M181 54C181.48 56.22 180.28 58.01 180 60C184.26 60.32 182.46 55.41 183 53C182.77 53.34 181.26 53.52 181 54Z" stroke="#C0E4E1" stroke-width="0.3"/>
        <path d="M97 81C96.06 74.88 95.49 64.77 89 63C90.77 69.18 92.33 76.37 97 81Z" stroke="#40B0A7" stroke-width="0.3"/>
        <path d="M110 83C109.19 77.84 108.41 68.13 103 65C101.4 67.83 103.99 70.97 102 74C107.32 73.43 105.8 80.82 110 83Z" stroke="#41B2A9" stroke-width="0.3"/>
        <path d="M66 72C65.94 69.61 63.33 67.14 61 67C61.06 69.39 63.67 71.86 66 72Z" stroke="#54B7AE" stroke-width="0.3"/>
        <path d="M265 79C264.99 79.33 265.92 79.75 266 80C269.78 76.94 274.64 73.07 275 68C270.75 70.62 267.59 75.22 265 79Z" stroke="#5FBAB1" stroke-width="0.3"/>
        <path d="M262 83C262.69 82.38 264.48 82.43 265 82C265.18 81.38 265.55 80.49 266 80C265.92 79.75 264.99 79.33 265 79C264.15 80.24 262.9 81.53 262 83Z" stroke="#BDE4E2" stroke-width="0.3"/>
        <path d="M240 80C237.06 79.24 235.89 81.86 235 84C237.42 84.54 240.09 82.47 240 80Z" stroke="#D4EFED" stroke-width="0.3"/>
        <path d="M276 83C270.42 82.93 263.87 90.53 262 96C267.36 92.83 271.94 87.87 276 83Z" stroke="#6ABEB6" stroke-width="0.3"/>
        <path d="M87 96C86.2 90.57 79.49 86.19 76 83C78.14 87.87 82.31 93.63 87 96Z" stroke="#49B4AB" stroke-width="0.3"/>
        <path d="M32 88C31.44 87.44 29.3 88.6 30.29 89.63C31.29 90.67 32.73 88.73 32 88Z" stroke="#60BBB2" stroke-width="0.3"/>
        <path d="M328 95C327.1 94.1 324.9 96.5 326.29 97.63C327.69 98.77 328.81 95.81 328 95Z" stroke="#88CBC4" stroke-width="0.3"/>
        <path d="M59 106C72.99 105.11 56.84 120.93 59 106Z" stroke="#33ABA2" stroke-width="0.3"/>
        <path d="M72 106C71.44 105.44 69.3 106.6 70.29 107.63C71.29 108.67 72.73 106.73 72 106Z" stroke="#5FBCB3" stroke-width="0.3"/>
        <path d="M64 132C58.71 130.94 51.99 127.5 47.23 125.77C42.47 124.04 36.72 116.34 34 123C38.74 125.38 45.16 127.35 49.97 129.03C54.78 130.71 60.32 135.01 64 132Z" stroke="#4FB5AC" stroke-width="0.3"/>
        <path d="M68 130C67.23 124.87 62.61 129.67 68 130Z" stroke="#7FCCC5" stroke-width="0.3"/>
        <path d="M74 133C72.59 128.1 67.93 131.5 74 133Z" stroke="#47B4AB" stroke-width="0.3"/>
        <path d="M313 139C309.06 139.09 305.77 141.42 302 142C304.64 143.57 312.48 143.1 313 139Z" stroke="#6AC1B9" stroke-width="0.3"/>
        <path d="M73 148C70.63 150.58 69.39 145.15 73 148Z" stroke="#CEECEA" stroke-width="0.3"/>
        <path d="M35 156C30.42 159.02 29.2 152.96 35 156Z" stroke="#66C4BC" stroke-width="0.3"/>
        <path d="M36 169C35.52 166.64 32.37 164.61 30 164C29.98 167.01 33.5 168.67 36 169Z" stroke="#47B2A9" stroke-width="0.3"/>
        <path d="M15 169C14.45 168.45 12.3 169.6 13.29 170.63C14.29 171.67 15.73 169.73 15 169Z" stroke="#AEDFDB" stroke-width="0.3"/>
        <path d="M44 174C43.69 168.38 38.41 173.75 44 174Z" stroke="#60BFB7" stroke-width="0.3"/>
        <path d="M45 175C44.32 174.32 41.25 175.29 42.32 176.66C43.39 178.03 46 176 45 175Z" stroke="#99CFCB" stroke-width="0.3"/>
        <path d="M310 178C303.99 177.41 294.38 174.87 289 179C295.69 179.76 304.43 181.49 310 178Z" stroke="#6BBFB7" stroke-width="0.3"/>
        <path d="M323 187C321.17 185.17 314.83 188.14 317.78 191.22C320.72 194.3 325.56 189.56 323 187Z" stroke="#38B0A7" stroke-width="0.3"/>
        <path d="M21 221C21.93 223.9 24.02 219.16 22 219C21.08 219.07 20.77 220.28 21 221Z" stroke="#30ABA1" stroke-width="0.3"/>
        <path d="M21 221C21.84 225.9 26.17 218.66 22 219C24.02 219.16 21.93 223.9 21 221Z" stroke="#BCE3DE" stroke-width="0.3"/>
        <path d="M68 226C70.09 224.98 72.23 224.68 74 223C74.15 221.57 71.96 222.26 72 221C70.45 222.09 68.53 221.87 67 223C67.03 224.14 68.53 224.72 68 226Z" stroke="#7CC8C2" stroke-width="0.3"/>
        <path d="M80 228C78.36 229.27 74.82 229.41 75 232C77.08 231.73 80.24 230.65 80 228Z" stroke="#74C7C0" stroke-width="0.3"/>
        <path d="M73 232C63.82 234.3 55.49 239.57 49 246C57.95 243.49 65.39 236.81 73 232Z" stroke="#4DB6AE" stroke-width="0.3"/>
        <path d="M27 241C24.81 246.9 19.15 241.23 27 241Z" stroke="#68C0B9" stroke-width="0.3"/>
        <path d="M46 247C45.82 251.35 40.88 246.9 46 247Z" stroke="#61BEB7" stroke-width="0.3"/>
        <path d="M77 250C74.42 252.41 70.98 254.03 69 257C72.16 256 76.39 253.68 77 250Z" stroke="#62BFB7" stroke-width="0.3"/>
        <path d="M23 253C21.38 257.24 18.18 252.11 23 253Z" stroke="#6FC4BE" stroke-width="0.3"/>
        <path d="M66 259C65.45 258.45 63.3 259.6 64.29 260.63C65.29 261.67 66.73 259.73 66 259Z" stroke="#8AD0CC" stroke-width="0.3"/>
        <path d="M252 275C249.59 269.28 244.73 264.22 240 260C242.05 265.91 247.48 270.65 252 275Z" stroke="#51B7AE" stroke-width="0.3"/>
        <path d="M104 266C102.48 269.88 99.7 265.93 104 266Z" stroke="#83CFCB" stroke-width="0.3"/>
        <path d="M116 270C113.29 269.73 112.3 272.96 112 275C114.21 274.24 115.03 271.85 116 270Z" stroke="#62BDB5" stroke-width="0.3"/>
        <path d="M98 271C92.08 273.58 88.92 280.6 84 285C90.11 285.85 94.23 275.46 98 271Z" stroke="#58B8B0" stroke-width="0.3"/>
        <path d="M118 273C113.64 274.85 111.6 281.13 109 285C113.46 283.06 114.8 276.78 118 273Z" stroke="#5DBDB5" stroke-width="0.3"/>
        <path d="M136 280C137.65 279 139.05 275.28 137 274C137.56 276.14 133.67 278.51 136 280Z" stroke="#62BDB4" stroke-width="0.3"/>
        <path d="M288 275C287.45 274.45 285.3 275.6 286.29 276.63C287.29 277.67 288.73 275.73 288 275Z" stroke="#80CEC9" stroke-width="0.3"/>
        <path d="M112 276C111.63 280.74 107.21 277.78 112 276Z" stroke="#39AFA5" stroke-width="0.3"/>
        <path d="M2.00001 277C-0.389994 282.81 -4.22999 276.51 2.00001 277Z" stroke="#98D2CC" stroke-width="0.3"/>
        <path d="M27 287C26.45 286.45 24.3 287.6 25.29 288.63C26.29 289.67 27.73 287.73 27 287Z" stroke="#73C5BC" stroke-width="0.3"/>
        <path d="M194 287C191.72 288.84 194.1 293.12 195 295C196.84 293.13 194 289.56 194 287Z" stroke="#60BDB5" stroke-width="0.3"/>
        <path d="M232 295C231.74 292.78 230.47 290.49 229 289C228.88 291.33 229.81 293.96 232 295Z" stroke="#49B4AC" stroke-width="0.3"/>
        <path d="M95 292C92.55 293.8 90.61 296.99 90 300C92.79 298.44 95.27 295.33 95 292Z" stroke="#A5D8D3" stroke-width="0.3"/>
        <path d="M18 303C17.72 299.6 15.46 296.2 13 294C13.37 297.22 14.86 302.11 18 303Z" stroke="#70C1BA" stroke-width="0.3"/>
        <path d="M236 302C235.62 295.37 230.51 300.62 236 302Z" stroke="#51B6AE" stroke-width="0.3"/>
        <path d="M161 299C161 299 160.01 299.06 160 299C158.15 299.39 159.06 302.88 161 302C161.05 301 160.94 300 161 299Z" stroke="#A1D8D4" stroke-width="0.3"/>
        <path d="M197 302C197.89 297.18 192.76 300.38 197 302Z" stroke="#65C3BC" stroke-width="0.3"/>
        <path d="M285 312C284.38 308.53 280.57 306.23 278 304C278.86 307.18 282.48 310.65 285 312Z" stroke="#64C1BA" stroke-width="0.3"/>
        <path d="M82 305C81.44 304.44 79.3 305.6 80.29 306.63C81.29 307.67 82.73 305.73 82 305Z" stroke="#9EDDD7" stroke-width="0.3"/>
        <path d="M148 318C144.79 323.51 142.43 332.94 143 339C145.36 332.64 147.48 325.2 148 318Z" stroke="#71C5BE" stroke-width="0.3"/>
        <path d="M153 321C151.35 322.6 150.92 325.56 151 328C154.03 327.07 152.74 323.35 153 321Z" stroke="#6FC4BD" stroke-width="0.3"/>
        <path d="M99 324C95.8 323.05 91.55 330.95 96.32 332.66C101.09 334.37 102.96 325.18 99 324Z" stroke="#3DB1A7" stroke-width="0.3"/>
        <path d="M152 330C151.45 329.45 149.3 330.6 150.29 331.63C151.29 332.67 152.73 330.73 152 330Z" stroke="#ABDAD6" stroke-width="0.3"/>
        <path d="M110 21C107.62 11.29 102.9 0.0700002 97 -7C99.83 2.56 104.84 13.62 110 21Z" fill="#48B3AA"/>
        <path d="M159 28C152.19 24.76 154.04 42.42 159.3 34.3C164.55 26.17 159.25 10.76 159 1C155.89 9.49 159.19 18.76 159 28Z" fill="#43B0A7"/>
        <path d="M178 13C177.65 15.4 177.17 19.21 177 21C176.39 26.18 178.25 32.58 176 37C173.78 31.74 175.09 24.97 173 20C171.54 36.04 173.79 52.07 176 68C171.42 70 167.4 62.06 163.75 67.75C160.09 73.43 154.6 70.13 154 65C151.07 65.22 148.77 63.27 146 63C144.96 66.5 146.58 70.04 146 74C139.91 78.83 134.54 73.6 128 76C128.49 79.58 127.14 84.62 123 85C121.92 78.91 121.3 72.72 119 67C111.48 69.8 122.23 79.55 118 85C112.83 81.84 110.42 89.16 106 90C104.24 87.35 101.62 84.89 99 83C98.75 87.97 102.72 91.03 105 95C100.87 94.48 98.17 91.44 101 97C94.23 92.36 97.21 77.96 89 73C87.07 76.96 93.01 79.92 93 84C89.32 82.29 86.44 77.19 82 76C86.56 84.44 93.25 92.66 99 100C92.15 98.51 90.27 104.84 92 110C78.06 105.29 69.72 89.92 56 84C56.06 86.3 59.03 87.55 61 88C54.86 93.58 69.67 98.88 74.75 102.25C79.84 105.61 92.65 111.25 87 119C82.77 115.73 78.99 117.42 77 122C75.01 126.58 81.75 132.66 76 133C82.17 139.04 73.71 143.48 68.22 141.78C62.74 140.07 60.51 135.6 55 137C56.6 140.45 59.28 142.93 55 146C60.7 152.62 75.54 148.06 70.26 158.26C64.97 168.45 58.5 164.54 49 165C52.23 167.16 56.73 168.35 61 168C62.18 170.8 62.89 173.64 65 176C60.49 176.59 54.75 174.78 51 177C56.84 178.32 63.13 177.86 69 179C67.92 181.22 66.46 183.32 67 186C80.22 189.37 74.33 209.16 62 209C64.18 214.96 72.66 209.87 78 209C79.03 212.87 75.38 215.73 72 216C71.96 217.67 72.06 219.34 72 221C71.96 222.26 74.15 221.57 74 223C72.23 224.68 70.09 224.98 68 226C55.14 230.24 42.34 237.28 30 241C37.89 241.59 44.82 238.43 52.31 234.31C59.79 230.18 66.36 230.69 73.92 224.92C81.47 219.14 82.46 226.07 90 231C87.03 238.93 77.41 239.16 74 247C79 246.22 80.36 246.44 82 249C84.82 244.69 89.81 242.62 94 240C94.81 242.1 97.92 243.23 97 246C89.76 250.17 98.55 253.95 103 251C101.33 257.5 88.73 258.01 97 265C91.98 267.54 86.59 272.98 84 278C92.6 272.83 100.04 264.33 107 257C105.69 260.32 110.16 260.48 110 263C104.58 268.1 98.19 273.8 96 281C101.9 276.18 107.87 268.54 113 263C116.01 267.05 121.62 266.3 118 272C122.45 270.89 123.09 264.62 128 265C128.41 272.05 129.68 276.63 136.78 270.78C143.88 264.93 143.76 275.77 146.78 279.22C149.8 282.67 155.19 270.42 160 274C160.33 282.7 159.03 290.82 160 299C160.01 299.06 161 299 161 299C161.48 295.16 161.43 291.07 164 288C167.28 293.48 161.4 301.04 165 307C167.31 302.66 165.35 296.16 166 291C171.17 295.68 170.25 286.11 172.23 282.23C174.21 278.35 180.65 273.76 182 281C187.86 276.46 193.2 276.37 193 285C193.21 276 199.93 279.86 201 286C204.6 281.36 196.25 276.59 200.25 272.25C204.25 267.92 208.08 271.17 210.25 275.74C212.43 280.31 220.65 269.52 214 268C217.67 262.68 218.64 266.38 222.33 269.67C226.02 272.95 231.2 264.18 227 261C239.58 247.91 250.36 266.58 260 273C260.38 269.88 255.66 269.11 256 266C261.42 266.93 263.52 275.03 268.92 276.08C274.33 277.12 276.26 286.67 282 284C274.7 276.9 267.05 269.84 262 261C267.37 262.21 269.62 269.76 275 271C272.07 260.58 258.69 255.89 254 246C258.98 249.39 263.67 256.24 270 254C274.59 258.48 279.72 264.42 286 266C279.25 261.61 272.68 249.08 265 253C259.66 249.23 249.29 239.7 259.25 235.25C269.2 230.79 257.9 214.77 267.99 213.01C278.09 211.25 283.74 222.61 293 219C286.85 215.93 279.84 215.87 274 212C274.47 205.66 285.94 208.59 286.92 203.08C287.91 197.56 276.73 196.97 276 192C279.76 189.36 280.37 181.79 275 181C273.2 168.62 288.69 170.35 297 169C292.13 166.24 285.44 169.1 280 169C283.21 158.83 301.72 165.03 307 158C300.04 162.43 293.73 157.27 288.01 156.01C282.29 154.74 271.79 160.1 276 149C286.19 152.82 281.23 134.92 273 141C267.17 136.42 265.85 124.92 274 122C274.42 114.06 266.58 114.94 262 118C258.85 112.79 257.21 107.23 254 102C255.89 94.92 262.89 89.24 265 82C264.48 82.43 262.69 82.38 262 83C260.34 87.84 256.57 92.54 251 90C252.16 81.47 261.4 75.94 265 68C253.35 73.18 251.27 89.29 241 94C242.07 89.98 240.54 84.2 245 82C238.4 71.7 250.95 67.05 255.3 60.3C259.64 53.54 266.68 47.76 270 40C262.9 45 257.25 54.18 249.75 59.75C242.26 65.33 238.67 76.03 231 81C228.42 75.64 236.23 73.38 236 68C233.46 67.98 231.24 69.01 229 70C230.35 73.92 225.85 83.64 221.75 81.25C217.65 78.85 213.73 74.44 216 70C214.67 67.07 212.71 72.54 211 70C214.43 59.08 219.82 46.61 220 36C217.93 44.66 212.56 47.41 211.93 56.93C211.29 66.44 199.48 64.12 198 72C188.39 75.5 190.8 66.2 192.07 62.07C193.34 57.94 197.43 50.04 193.03 48.03C188.62 46.02 188.99 59.87 185 59C185.17 55.91 186.6 53.26 186 50C182.56 49.3 184.12 51.29 183 53C182.46 55.41 184.26 60.32 180 60C180.28 58.01 181.48 56.22 181 54C182.33 46.16 182.83 38.12 183 30C179.03 32.47 179.46 31.52 179 27C178.54 22.44 180.39 16.34 179 12C178.81 11.9 178.22 12.7 178 13ZM240 80C240.09 82.47 237.42 84.54 235 84C235.89 81.86 237.06 79.24 240 80ZM73 148C70.63 150.58 69.39 145.15 73 148Z" fill="#0EA79D"/>
        <path d="M179 27C179 24.67 182.38 13.89 179 12C180.39 16.34 178.54 22.44 179 27Z" fill="#9FD5D0"/>
        <path d="M177 21C177.17 19.21 177.65 15.4 178 13C176.46 15.09 177 18.19 177 21Z" fill="#9BD9D5"/>
        <path d="M116 23C117.27 21.28 116.04 15.18 113 15C113.6 17.81 115.06 20.29 116 23Z" fill="#4CB8B1"/>
        <path d="M197 28C200.13 26.72 199.5 21.02 198 19C196.39 21.38 196 25.22 197 28Z" fill="#4EB5AD"/>
        <path d="M123 61C124.23 50.92 115.92 39.87 113 30C112.94 39.76 119.95 50.88 123 61Z" fill="#50B5AC"/>
        <path d="M103 33C106.15 36.64 100.14 35.31 103 33Z" fill="#47B8B0"/>
        <path d="M135 60C135.98 51.41 131.56 39.48 125 33C124.65 44.63 130.53 51.15 135 60Z" fill="#37AEA5"/>
        <path d="M169 38C163.87 34.7 161.09 42.29 164.75 44.2C168.42 46.1 171.35 39.51 169 38Z" fill="#39AEA4"/>
        <path d="M211 39C207.97 41.76 206.1 48.42 208 52C211.24 49.2 212.33 42.89 211 39Z" fill="#65BCB3"/>
        <path d="M232 39C225.45 46.85 221.66 57.14 219 67C226.94 62.28 227.8 47.88 232 39Z" fill="#45B2A8"/>
        <path d="M276 42C275.75 47.59 270.38 42.31 276 42Z" fill="#64BEB6"/>
        <path d="M52 56C50.78 51.83 46.2 48.91 43 46C43.26 50.4 48.25 54.42 52 56Z" fill="#36AEA4"/>
        <path d="M110 49C110.89 44.18 105.76 47.38 110 49Z" fill="#8ACEC8"/>
        <path d="M273 46C269.79 47.17 266.34 51.37 266 55C270.22 54.35 271.03 48.98 273 46ZM269 51C269.06 55.33 265.15 52.49 269 51Z" fill="#A0D7D2"/>
        <path d="M79 48C76.88 47.18 75.01 51.8 77.25 52.59C79.49 53.38 81.26 48.87 79 48Z" fill="#40B2A9"/>
        <path d="M142 54C145.74 47.64 136.93 47.07 142 54Z" fill="#8FD1CC"/>
        <path d="M269 51C269.06 55.33 265.15 52.49 269 51Z" fill="#00A79D"/>
        <path d="M181 54C181.48 56.22 180.28 58.01 180 60C184.26 60.32 182.46 55.41 183 53C182.77 53.34 181.26 53.52 181 54Z" fill="#C0E4E1"/>
        <path d="M97 81C96.06 74.88 95.49 64.77 89 63C90.77 69.18 92.33 76.37 97 81Z" fill="#40B0A7"/>
        <path d="M110 83C109.19 77.84 108.41 68.13 103 65C101.4 67.83 103.99 70.97 102 74C107.32 73.43 105.8 80.82 110 83Z" fill="#41B2A9"/>
        <path d="M66 72C65.94 69.61 63.33 67.14 61 67C61.06 69.39 63.67 71.86 66 72Z" fill="#54B7AE"/>
        <path d="M265 79C264.99 79.33 265.92 79.75 266 80C269.78 76.94 274.64 73.07 275 68C270.75 70.62 267.59 75.22 265 79Z" fill="#5FBAB1"/>
        <path d="M262 83C262.69 82.38 264.48 82.43 265 82C265.18 81.38 265.55 80.49 266 80C265.92 79.75 264.99 79.33 265 79C264.15 80.24 262.9 81.53 262 83Z" fill="#BDE4E2"/>
        <path d="M240 80C237.06 79.24 235.89 81.86 235 84C237.42 84.54 240.09 82.47 240 80Z" fill="#D4EFED"/>
        <path d="M276 83C270.42 82.93 263.87 90.53 262 96C267.36 92.83 271.94 87.87 276 83Z" fill="#6ABEB6"/>
        <path d="M87 96C86.2 90.57 79.49 86.19 76 83C78.14 87.87 82.31 93.63 87 96Z" fill="#49B4AB"/>
        <path d="M32 88C31.44 87.44 29.3 88.6 30.29 89.63C31.29 90.67 32.73 88.73 32 88Z" fill="#60BBB2"/>
        <path d="M328 95C327.1 94.1 324.9 96.5 326.29 97.63C327.69 98.77 328.81 95.81 328 95Z" fill="#88CBC4"/>
        <path d="M59 106C72.99 105.11 56.84 120.93 59 106Z" fill="#33ABA2"/>
        <path d="M72 106C71.44 105.44 69.3 106.6 70.29 107.63C71.29 108.67 72.73 106.73 72 106Z" fill="#5FBCB3"/>
        <path d="M64 132C58.71 130.94 51.99 127.5 47.23 125.77C42.47 124.04 36.72 116.34 34 123C38.74 125.38 45.16 127.35 49.97 129.03C54.78 130.71 60.32 135.01 64 132Z" fill="#4FB5AC"/>
        <path d="M68 130C67.23 124.87 62.61 129.67 68 130Z" fill="#7FCCC5"/>
        <path d="M74 133C72.59 128.1 67.93 131.5 74 133Z" fill="#47B4AB"/>
        <path d="M313 139C309.06 139.09 305.77 141.42 302 142C304.64 143.57 312.48 143.1 313 139Z" fill="#6AC1B9"/>
        <path d="M73 148C70.63 150.58 69.39 145.15 73 148Z" fill="#CEECEA"/>
        <path d="M35 156C30.42 159.02 29.2 152.96 35 156Z" fill="#66C4BC"/>
        <path d="M36 169C35.52 166.64 32.37 164.61 30 164C29.98 167.01 33.5 168.67 36 169Z" fill="#47B2A9"/>
        <path d="M15 169C14.45 168.45 12.3 169.6 13.29 170.63C14.29 171.67 15.73 169.73 15 169Z" fill="#AEDFDB"/>
        <path d="M44 174C43.69 168.38 38.41 173.75 44 174Z" fill="#60BFB7"/>
        <path d="M45 175C44.32 174.32 41.25 175.29 42.32 176.66C43.39 178.03 46 176 45 175Z" fill="#99CFCB"/>
        <path d="M310 178C303.99 177.41 294.38 174.87 289 179C295.69 179.76 304.43 181.49 310 178Z" fill="#6BBFB7"/>
        <path d="M323 187C321.17 185.17 314.83 188.14 317.78 191.22C320.72 194.3 325.56 189.56 323 187Z" fill="#38B0A7"/>
        <path d="M21 221C21.93 223.9 24.02 219.16 22 219C21.08 219.07 20.77 220.28 21 221Z" fill="#30ABA1"/>
        <path d="M21 221C21.84 225.9 26.17 218.66 22 219C24.02 219.16 21.93 223.9 21 221Z" fill="#BCE3DE"/>
        <path d="M68 226C70.09 224.98 72.23 224.68 74 223C74.15 221.57 71.96 222.26 72 221C70.45 222.09 68.53 221.87 67 223C67.03 224.14 68.53 224.72 68 226Z" fill="#7CC8C2"/>
        <path d="M80 228C78.36 229.27 74.82 229.41 75 232C77.08 231.73 80.24 230.65 80 228Z" fill="#74C7C0"/>
        <path d="M73 232C63.82 234.3 55.49 239.57 49 246C57.95 243.49 65.39 236.81 73 232Z" fill="#4DB6AE"/>
        <path d="M27 241C24.81 246.9 19.15 241.23 27 241Z" fill="#68C0B9"/>
        <path d="M46 247C45.82 251.35 40.88 246.9 46 247Z" fill="#61BEB7"/>
        <path d="M77 250C74.42 252.41 70.98 254.03 69 257C72.16 256 76.39 253.68 77 250Z" fill="#62BFB7"/>
        <path d="M23 253C21.38 257.24 18.18 252.11 23 253Z" fill="#6FC4BE"/>
        <path d="M66 259C65.45 258.45 63.3 259.6 64.29 260.63C65.29 261.67 66.73 259.73 66 259Z" fill="#8AD0CC"/>
        <path d="M252 275C249.59 269.28 244.73 264.22 240 260C242.05 265.91 247.48 270.65 252 275Z" fill="#51B7AE"/>
        <path d="M104 266C102.48 269.88 99.7 265.93 104 266Z" fill="#83CFCB"/>
        <path d="M116 270C113.29 269.73 112.3 272.96 112 275C114.21 274.24 115.03 271.85 116 270Z" fill="#62BDB5"/>
        <path d="M98 271C92.08 273.58 88.92 280.6 84 285C90.11 285.85 94.23 275.46 98 271Z" fill="#58B8B0"/>
        <path d="M118 273C113.64 274.85 111.6 281.13 109 285C113.46 283.06 114.8 276.78 118 273Z" fill="#5DBDB5"/>
        <path d="M136 280C137.65 279 139.05 275.28 137 274C137.56 276.14 133.67 278.51 136 280Z" fill="#62BDB4"/>
        <path d="M288 275C287.45 274.45 285.3 275.6 286.29 276.63C287.29 277.67 288.73 275.73 288 275Z" fill="#80CEC9"/>
        <path d="M112 276C111.63 280.74 107.21 277.78 112 276Z" fill="#39AFA5"/>
        <path d="M2.00001 277C-0.389994 282.81 -4.22999 276.51 2.00001 277Z" fill="#98D2CC"/>
        <path d="M27 287C26.45 286.45 24.3 287.6 25.29 288.63C26.29 289.67 27.73 287.73 27 287Z" fill="#73C5BC"/>
        <path d="M194 287C191.72 288.84 194.1 293.12 195 295C196.84 293.13 194 289.56 194 287Z" fill="#60BDB5"/>
        <path d="M232 295C231.74 292.78 230.47 290.49 229 289C228.88 291.33 229.81 293.96 232 295Z" fill="#49B4AC"/>
        <path d="M95 292C92.55 293.8 90.61 296.99 90 300C92.79 298.44 95.27 295.33 95 292Z" fill="#A5D8D3"/>
        <path d="M18 303C17.72 299.6 15.46 296.2 13 294C13.37 297.22 14.86 302.11 18 303Z" fill="#70C1BA"/>
        <path d="M236 302C235.62 295.37 230.51 300.62 236 302Z" fill="#51B6AE"/>
        <path d="M161 299C161 299 160.01 299.06 160 299C158.15 299.39 159.06 302.88 161 302C161.05 301 160.94 300 161 299Z" fill="#A1D8D4"/>
        <path d="M197 302C197.89 297.18 192.76 300.38 197 302Z" fill="#65C3BC"/>
        <path d="M285 312C284.38 308.53 280.57 306.23 278 304C278.86 307.18 282.48 310.65 285 312Z" fill="#64C1BA"/>
        <path d="M82 305C81.44 304.44 79.3 305.6 80.29 306.63C81.29 307.67 82.73 305.73 82 305Z" fill="#9EDDD7"/>
        <path d="M148 318C144.79 323.51 142.43 332.94 143 339C145.36 332.64 147.48 325.2 148 318Z" fill="#71C5BE"/>
        <path d="M153 321C151.35 322.6 150.92 325.56 151 328C154.03 327.07 152.74 323.35 153 321Z" fill="#6FC4BD"/>
        <path d="M99 324C95.8 323.05 91.55 330.95 96.32 332.66C101.09 334.37 102.96 325.18 99 324Z" fill="#3DB1A7"/>
        <path d="M152 330C151.45 329.45 149.3 330.6 150.29 331.63C151.29 332.67 152.73 330.73 152 330Z" fill="#ABDAD6"/>
    </g>
    <defs>
        <clipPath id="clip0_6_2">
            <rect width="390" height="392" fill="white" transform="translate(-5 -28)"/>
        </clipPath>
    </defs>
</svg>
